grf.mot
version=1
nRows=12
nColumns=19
inDegrees=yes
endheader
time	ground_force_vx	ground_force_vy	ground_force_vz	ground_force_px	ground_force_py	ground_force_pz	1_ground_force_vx	1_ground_force_vy	1_ground_force_vz	1_ground_force_px	1_ground_force_py	1_ground_force_pz	ground_torque_x	ground_torque_y	ground_torque_z	1_ground_torque_x	1_ground_torque_y	1_ground_torque_z	
1.24654000000000	-111.32400000000000	947.86500000000001	-78.13480000000000	0.04655760000000	0.00407328000000	0.09544560000000	0.00000000000000	0.00000000000000	0.00000000000000	0.00000000000000	0.00000000000000	0.00000000000000	0.00000000000000	-1.26585000000000	0.00000000000000	0.00000000000000	0.00000000000000	0.00000000000000	
1.24820000000000	-108.38000000000000	941.66300000000001	-78.16670000000001	0.04437110000000	0.00388199000000	0.09584320000000	0.00000000000000	0.00000000000000	0.00000000000000	0.00000000000000	0.00000000000000	0.00000000000000	0.00000000000000	-1.29880000000000	0.00000000000000	0.00000000000000	0.00000000000000	0.00000000000000	
1.24987000000000	-105.44300000000000	935.32799999999997	-78.15649999999999	0.04218060000000	0.00369035000000	0.09624390000000	0.00000000000000	0.00000000000000	0.00000000000000	0.00000000000000	0.00000000000000	0.00000000000000	0.00000000000000	-1.33331000000000	0.00000000000000	0.00000000000000	0.00000000000000	0.00000000000000	
1.25154000000000	-102.51800000000000	928.86599999999999	-78.10530000000000	0.03998730000000	0.00349847000000	0.09664690000000	0.00000000000000	0.00000000000000	0.00000000000000	0.00000000000000	0.00000000000000	0.00000000000000	0.00000000000000	-1.36932000000000	0.00000000000000	0.00000000000000	0.00000000000000	0.00000000000000	
1.25320000000000	-99.60610000000000	922.28499999999997	-78.01440000000000	0.03779220000000	0.00330643000000	0.09705130000000	0.00000000000000	0.00000000000000	0.00000000000000	0.00000000000000	0.00000000000000	0.00000000000000	0.00000000000000	-1.40676000000000	0.00000000000000	0.00000000000000	0.00000000000000	0.00000000000000	
1.25487000000000	-96.71210000000001	915.59000000000003	-77.88509999999999	0.03559640000000	0.00311432000000	0.09745640000000	0.00000000000000	0.00000000000000	0.00000000000000	0.00000000000000	0.00000000000000	0.00000000000000	0.00000000000000	-1.44554000000000	0.00000000000000	0.00000000000000	0.00000000000000	0.00000000000000	
1.25654000000000	-93.83880000000001	908.78999999999996	-77.71860000000000	0.03340080000000	0.00292224000000	0.09786130000000	0.00000000000000	0.00000000000000	0.00000000000000	0.00000000000000	0.00000000000000	0.00000000000000	0.00000000000000	-1.48558000000000	0.00000000000000	0.00000000000000	0.00000000000000	0.00000000000000	
1.25820000000000	-90.98909999999999	901.89099999999996	-77.51630000000000	0.03120670000000	0.00273028000000	0.09826530000000	0.00000000000000	0.00000000000000	0.00000000000000	0.00000000000000	0.00000000000000	0.00000000000000	0.00000000000000	-1.52681000000000	0.00000000000000	0.00000000000000	0.00000000000000	0.00000000000000	
1.25987000000000	-88.16580000000000	894.90099999999995	-77.27960000000000	0.02901490000000	0.00253853000000	0.09866760000000	0.00000000000000	0.00000000000000	0.00000000000000	0.00000000000000	0.00000000000000	0.00000000000000	0.00000000000000	-1.56912000000000	0.00000000000000	0.00000000000000	0.00000000000000	0.00000000000000	
1.26154000000000	-85.37170000000000	887.82500000000005	-77.00990000000000	0.02682650000000	0.00234708000000	0.09906760000000	0.00000000000000	0.00000000000000	0.00000000000000	0.00000000000000	0.00000000000000	0.00000000000000	0.00000000000000	-1.61243000000000	0.00000000000000	0.00000000000000	0.00000000000000	0.00000000000000	
1.26320000000000	-82.60939999999999	880.67200000000003	-76.70850000000000	0.02464270000000	0.00215602000000	0.09946440000000	0.00000000000000	0.00000000000000	0.00000000000000	0.00000000000000	0.00000000000000	0.00000000000000	0.00000000000000	-1.65664000000000	0.00000000000000	0.00000000000000	0.00000000000000	0.00000000000000	
1.26487000000000	-79.88130000000000	873.44899999999996	-76.37690000000001	0.02246440000000	0.00196545000000	0.09985750000000	0.00000000000000	0.00000000000000	0.00000000000000	0.00000000000000	0.00000000000000	0.00000000000000	0.00000000000000	-1.70165000000000	0.00000000000000	0.00000000000000	0.00000000000000	0.00000000000000	
